# xmcd CD database file
#
# Track frame offsets:
#	150
#	13580
#	27297
#	44807
#	58787
#	78535
#	92640
#	105985
#	120932
#	134612
#	149155
#	162770
#	176455
#	193252
#	208452
#
# Disc length: 2978 seconds
#
# Revision: 2
# Processed by: cddbd v1.5.2PL0 Copyright (c) Steve Scherf et al.
# Submitted via: CDex 1.51
#
DISCID=db0ba00f
DTITLE=John Lee Hooker - The Complete 50's Chess Recordings (Disc-2)
DYEAR=1998
DGENRE=Blues
TTITLE0=Walkin' The Boogie
TTITLE1=Love Blues
TTITLE2=Lonely Boy Boogie
TTITLE3=Apologize
TTITLE4=The Journey
TTITLE5=Worried Life Blues
TTITLE6=Down At The Landing
TTITLE7=You Have Two Hearts
TTITLE8=It's My Own Fault
TTITLE9=Blues For Big Town
TTITLE10=Women And Money
TTITLE11=Big Fine Woman
TTITLE12=Tell Me Baby
TTITLE13=Blues For Christmas
TTITLE14=Cry Baby Cry
EXTD=YEAR: 1998
EXTT0=
EXTT1=
EXTT2=
EXTT3=
EXTT4=
EXTT5=
EXTT6=
EXTT7=
EXTT8=
EXTT9=
EXTT10=
EXTT11=
EXTT12=
EXTT13=
EXTT14=
PLAYORDER=
